<svg width="367" height="353" viewBox="0 0 367 353" fill="none" xmlns="http://www.w3.org/2000/svg">
<g filter="url(#filter0_d_1124_1653)">
<rect x="64.8713" y="60.5467" width="236.851" height="222.315" rx="8.55058" fill="#FAFAFA"/>
<rect x="65.2989" y="60.9742" width="235.996" height="221.46" rx="8.12305" stroke="url(#paint0_linear_1124_1653)" stroke-width="0.855058"/>
</g>
<path d="M116.059 221.839C104.447 222.623 89.667 208.079 89.667 208.079V259.775H270.084V186.149C251.667 200.087 244.297 184.701 221.194 186.149C204.928 187.169 200.687 214.483 185.716 208.079C168.708 200.804 159.449 181.303 141.586 186.149C124.987 190.652 133.225 220.68 116.059 221.839Z" fill="url(#paint1_linear_1124_1653)"/>
<path d="M90.5225 207.949C90.5225 207.949 105.127 222.409 116.602 221.63C133.565 220.477 125.424 190.622 141.826 186.145C159.477 181.327 168.627 200.715 185.434 207.949C200.227 214.316 204.418 187.158 220.491 186.145C243.32 184.705 250.603 200.002 268.802 186.145" stroke="#3921F5" stroke-width="1.71012" stroke-linecap="round"/>
<line x1="255.777" y1="171.168" x2="255.777" y2="255.818" stroke="url(#paint2_linear_1124_1653)" stroke-width="0.855058" stroke-dasharray="1.71 1.71"/>
<circle cx="256.203" cy="184.848" r="4.27529" fill="white" stroke="#3921F5" stroke-width="1.71012"/>
<path d="M159.15 138.729V116.91H160.547V138.729H159.15ZM162.857 124.112C162.789 123.425 162.496 122.89 161.979 122.51C161.462 122.129 160.761 121.939 159.874 121.939C159.272 121.939 158.763 122.024 158.349 122.194C157.934 122.359 157.616 122.589 157.394 122.885C157.178 123.18 157.07 123.515 157.07 123.89C157.059 124.203 157.124 124.476 157.266 124.709C157.414 124.942 157.616 125.143 157.871 125.314C158.127 125.479 158.422 125.623 158.758 125.748C159.093 125.868 159.451 125.97 159.832 126.055L161.4 126.43C162.161 126.601 162.86 126.828 163.496 127.112C164.133 127.396 164.684 127.746 165.15 128.16C165.616 128.575 165.976 129.064 166.232 129.626C166.493 130.189 166.627 130.834 166.633 131.561C166.627 132.629 166.354 133.555 165.815 134.339C165.28 135.118 164.508 135.723 163.496 136.155C162.491 136.581 161.278 136.794 159.857 136.794C158.448 136.794 157.221 136.578 156.175 136.146C155.136 135.714 154.323 135.075 153.738 134.229C153.158 133.376 152.854 132.322 152.826 131.067H156.397C156.437 131.652 156.604 132.14 156.9 132.532C157.201 132.919 157.601 133.211 158.101 133.41C158.607 133.604 159.178 133.7 159.815 133.7C160.44 133.7 160.982 133.609 161.442 133.427C161.908 133.246 162.269 132.993 162.525 132.669C162.78 132.345 162.908 131.973 162.908 131.552C162.908 131.16 162.792 130.831 162.559 130.564C162.332 130.297 161.996 130.069 161.553 129.882C161.116 129.694 160.579 129.524 159.942 129.371L158.042 128.893C156.57 128.535 155.408 127.976 154.556 127.214C153.704 126.453 153.28 125.427 153.286 124.138C153.28 123.081 153.562 122.157 154.13 121.368C154.704 120.578 155.491 119.961 156.491 119.518C157.491 119.075 158.627 118.854 159.9 118.854C161.195 118.854 162.326 119.075 163.292 119.518C164.263 119.961 165.019 120.578 165.559 121.368C166.099 122.157 166.377 123.072 166.394 124.112H162.857Z" fill="#3921F5"/>
<path d="M169.708 133.479V130.572L176.995 119.092H179.501V123.115H178.018L173.424 130.385V130.521H183.779V133.479H169.708ZM178.086 136.547V132.592L178.154 131.305V119.092H181.615V136.547H178.086ZM186.934 133.479V130.572L194.221 119.092H196.727V123.115H195.244L190.65 130.385V130.521H201.005V133.479H186.934ZM195.312 136.547V132.592L195.38 131.305V119.092H198.84V136.547H195.312ZM206.252 136.768C205.69 136.768 205.207 136.569 204.803 136.172C204.405 135.768 204.207 135.285 204.207 134.723C204.207 134.166 204.405 133.689 204.803 133.291C205.207 132.893 205.69 132.694 206.252 132.694C206.798 132.694 207.275 132.893 207.684 133.291C208.093 133.689 208.298 134.166 208.298 134.723C208.298 135.098 208.201 135.442 208.008 135.754C207.82 136.061 207.573 136.308 207.266 136.496C206.959 136.677 206.621 136.768 206.252 136.768ZM218.656 136.785C217.383 136.785 216.25 136.567 215.255 136.129C214.267 135.686 213.485 135.078 212.912 134.305C212.343 133.527 212.051 132.629 212.034 131.612H215.75C215.772 132.038 215.912 132.413 216.167 132.737C216.429 133.055 216.775 133.302 217.207 133.479C217.639 133.655 218.125 133.743 218.664 133.743C219.227 133.743 219.724 133.643 220.156 133.444C220.588 133.246 220.926 132.97 221.17 132.618C221.414 132.265 221.537 131.859 221.537 131.399C221.537 130.933 221.406 130.521 221.145 130.163C220.889 129.8 220.52 129.515 220.037 129.311C219.559 129.106 218.991 129.004 218.332 129.004H216.704V126.294H218.332C218.889 126.294 219.38 126.197 219.807 126.004C220.238 125.811 220.574 125.544 220.812 125.203C221.051 124.856 221.17 124.453 221.17 123.993C221.17 123.555 221.065 123.172 220.855 122.842C220.65 122.507 220.36 122.246 219.985 122.058C219.616 121.871 219.184 121.777 218.69 121.777C218.19 121.777 217.733 121.868 217.318 122.05C216.903 122.226 216.571 122.479 216.321 122.808C216.071 123.138 215.937 123.524 215.92 123.967H212.383C212.4 122.961 212.687 122.075 213.244 121.308C213.801 120.541 214.551 119.942 215.494 119.51C216.443 119.072 217.514 118.854 218.707 118.854C219.912 118.854 220.966 119.072 221.869 119.51C222.772 119.947 223.474 120.538 223.974 121.282C224.48 122.021 224.73 122.851 224.724 123.771C224.73 124.748 224.426 125.564 223.812 126.217C223.204 126.871 222.412 127.285 221.434 127.461V127.598C222.718 127.763 223.696 128.209 224.366 128.936C225.042 129.657 225.378 130.561 225.372 131.646C225.378 132.64 225.091 133.524 224.511 134.297C223.937 135.069 223.145 135.677 222.133 136.121C221.122 136.564 219.963 136.785 218.656 136.785ZM235.36 136.785C234.155 136.785 233.081 136.564 232.138 136.121C231.2 135.677 230.456 135.067 229.905 134.288C229.354 133.51 229.067 132.618 229.044 131.612H232.624C232.664 132.288 232.948 132.836 233.476 133.257C234.004 133.677 234.632 133.888 235.36 133.888C235.939 133.888 236.45 133.76 236.894 133.504C237.343 133.243 237.692 132.882 237.942 132.422C238.198 131.956 238.325 131.422 238.325 130.819C238.325 130.206 238.195 129.666 237.933 129.2C237.678 128.734 237.323 128.371 236.868 128.109C236.414 127.848 235.894 127.714 235.308 127.709C234.797 127.709 234.3 127.814 233.817 128.024C233.34 128.234 232.968 128.521 232.7 128.885L229.419 128.297L230.246 119.092H240.916V122.109H233.289L232.837 126.481H232.939C233.246 126.05 233.709 125.692 234.328 125.407C234.948 125.123 235.641 124.981 236.408 124.981C237.459 124.981 238.396 125.229 239.22 125.723C240.044 126.217 240.695 126.896 241.172 127.76C241.649 128.618 241.885 129.606 241.879 130.726C241.885 131.902 241.612 132.947 241.061 133.862C240.516 134.771 239.752 135.487 238.769 136.01C237.791 136.527 236.655 136.785 235.36 136.785ZM246.104 136.547L253.339 122.229V122.109H244.91V119.092H257.158V122.152L249.913 136.547H246.104ZM267.158 136.785C265.846 136.785 264.678 136.572 263.655 136.146C262.638 135.714 261.84 135.126 261.26 134.382C260.681 133.638 260.391 132.794 260.391 131.851C260.391 131.123 260.556 130.456 260.885 129.848C261.221 129.234 261.675 128.726 262.249 128.322C262.823 127.913 263.465 127.652 264.175 127.538V127.419C263.243 127.231 262.488 126.78 261.908 126.064C261.329 125.342 261.039 124.504 261.039 123.55C261.039 122.646 261.303 121.842 261.831 121.138C262.36 120.427 263.084 119.871 264.005 119.467C264.931 119.058 265.982 118.854 267.158 118.854C268.334 118.854 269.383 119.058 270.303 119.467C271.229 119.876 271.956 120.436 272.485 121.146C273.013 121.851 273.28 122.652 273.286 123.55C273.28 124.51 272.985 125.348 272.4 126.064C271.814 126.78 271.064 127.231 270.15 127.419V127.538C270.848 127.652 271.482 127.913 272.05 128.322C272.624 128.726 273.079 129.234 273.414 129.848C273.755 130.456 273.928 131.123 273.934 131.851C273.928 132.794 273.635 133.638 273.056 134.382C272.476 135.126 271.675 135.714 270.652 136.146C269.635 136.572 268.471 136.785 267.158 136.785ZM267.158 134.075C267.743 134.075 268.255 133.97 268.692 133.76C269.13 133.544 269.471 133.248 269.715 132.873C269.965 132.493 270.09 132.055 270.09 131.561C270.09 131.055 269.962 130.609 269.706 130.223C269.451 129.831 269.104 129.524 268.667 129.302C268.229 129.075 267.726 128.961 267.158 128.961C266.596 128.961 266.093 129.075 265.65 129.302C265.206 129.524 264.857 129.831 264.601 130.223C264.351 130.609 264.226 131.055 264.226 131.561C264.226 132.055 264.348 132.493 264.593 132.873C264.837 133.248 265.181 133.544 265.624 133.76C266.067 133.97 266.579 134.075 267.158 134.075ZM267.158 126.277C267.647 126.277 268.081 126.177 268.462 125.979C268.843 125.78 269.141 125.504 269.357 125.152C269.573 124.8 269.681 124.393 269.681 123.933C269.681 123.479 269.573 123.081 269.357 122.74C269.141 122.393 268.846 122.123 268.471 121.93C268.096 121.731 267.658 121.632 267.158 121.632C266.664 121.632 266.226 121.731 265.846 121.93C265.465 122.123 265.167 122.393 264.951 122.74C264.74 123.081 264.635 123.479 264.635 123.933C264.635 124.393 264.743 124.8 264.959 125.152C265.175 125.504 265.473 125.78 265.854 125.979C266.235 126.177 266.669 126.277 267.158 126.277Z" fill="#141F39"/>
<path d="M158.847 98.8194H159.644V104.598C159.644 105.192 159.505 105.723 159.226 106.192C158.948 106.657 158.56 107.025 158.063 107.295C157.569 107.562 156.993 107.696 156.337 107.696C155.684 107.696 155.109 107.561 154.611 107.291C154.114 107.021 153.726 106.653 153.448 106.187C153.17 105.721 153.03 105.192 153.03 104.598V98.8194H153.827V104.542C153.827 105.005 153.931 105.419 154.138 105.782C154.346 106.143 154.637 106.427 155.012 106.635C155.39 106.842 155.832 106.946 156.337 106.946C156.843 106.946 157.285 106.842 157.663 106.635C158.04 106.427 158.332 106.143 158.536 105.782C158.743 105.419 158.847 105.005 158.847 104.542V98.8194ZM166.2 102.437L165.506 102.633C165.437 102.437 165.341 102.26 165.216 102.101C165.091 101.942 164.927 101.815 164.726 101.721C164.527 101.628 164.28 101.581 163.984 101.581C163.541 101.581 163.177 101.686 162.893 101.896C162.609 102.106 162.467 102.378 162.467 102.71C162.467 102.991 162.564 103.22 162.757 103.396C162.953 103.569 163.254 103.707 163.66 103.809L164.649 104.052C165.197 104.186 165.608 104.398 165.881 104.687C166.156 104.977 166.294 105.341 166.294 105.778C166.294 106.148 166.192 106.476 165.987 106.763C165.783 107.05 165.497 107.275 165.131 107.44C164.767 107.602 164.345 107.683 163.865 107.683C163.226 107.683 162.699 107.54 162.284 107.253C161.869 106.963 161.604 106.545 161.487 106L162.216 105.821C162.31 106.21 162.493 106.504 162.766 106.703C163.041 106.902 163.403 107.001 163.852 107.001C164.355 107.001 164.757 106.889 165.058 106.665C165.359 106.437 165.51 106.153 165.51 105.812C165.51 105.548 165.422 105.327 165.246 105.148C165.069 104.966 164.802 104.832 164.444 104.747L163.375 104.491C162.807 104.355 162.386 104.139 162.114 103.844C161.841 103.548 161.704 103.182 161.704 102.744C161.704 102.383 161.802 102.067 161.998 101.794C162.194 101.518 162.464 101.302 162.808 101.146C163.152 100.99 163.544 100.912 163.984 100.912C164.584 100.912 165.062 101.048 165.42 101.321C165.781 101.591 166.041 101.963 166.2 102.437ZM170.601 107.683C169.99 107.683 169.462 107.541 169.016 107.257C168.57 106.97 168.225 106.574 167.98 106.068C167.739 105.559 167.618 104.974 167.618 104.312C167.618 103.653 167.739 103.068 167.98 102.557C168.225 102.042 168.561 101.64 168.99 101.351C169.422 101.058 169.921 100.912 170.486 100.912C170.841 100.912 171.183 100.977 171.513 101.108C171.843 101.236 172.138 101.433 172.399 101.7C172.664 101.964 172.872 102.298 173.026 102.702C173.179 103.102 173.256 103.577 173.256 104.125V104.5H168.142V103.831H172.48C172.48 103.41 172.395 103.032 172.225 102.697C172.057 102.359 171.823 102.092 171.522 101.896C171.223 101.7 170.878 101.602 170.486 101.602C170.071 101.602 169.706 101.713 169.391 101.934C169.076 102.156 168.828 102.449 168.649 102.812C168.473 103.176 168.384 103.574 168.381 104.005V104.406C168.381 104.926 168.47 105.38 168.649 105.77C168.831 106.156 169.088 106.456 169.421 106.669C169.753 106.882 170.147 106.988 170.601 106.988C170.911 106.988 171.182 106.94 171.415 106.844C171.651 106.747 171.848 106.618 172.007 106.456C172.169 106.291 172.291 106.111 172.374 105.915L173.094 106.149C172.995 106.425 172.831 106.679 172.604 106.912C172.38 107.145 172.098 107.332 171.76 107.474C171.425 107.613 171.039 107.683 170.601 107.683ZM174.927 107.547V101.001H175.665V102.007H175.72C175.851 101.677 176.078 101.412 176.402 101.21C176.729 101.005 177.098 100.903 177.51 100.903C177.572 100.903 177.642 100.905 177.719 100.907C177.795 100.91 177.859 100.913 177.91 100.916V101.687C177.876 101.682 177.817 101.673 177.731 101.662C177.646 101.65 177.554 101.645 177.454 101.645C177.114 101.645 176.81 101.717 176.543 101.862C176.278 102.004 176.069 102.202 175.916 102.454C175.763 102.707 175.686 102.996 175.686 103.319V107.547H174.927ZM182.75 107.547H181.915L185.09 98.8194H185.942L189.117 107.547H188.281L185.546 99.8549H185.486L182.75 107.547ZM183.351 104.202H187.681V104.917H183.351V104.202ZM193.012 107.683C192.426 107.683 191.916 107.537 191.482 107.244C191.05 106.952 190.715 106.551 190.476 106.042C190.237 105.534 190.118 104.954 190.118 104.304C190.118 103.648 190.239 103.064 190.48 102.552C190.725 102.041 191.063 101.64 191.495 101.351C191.926 101.058 192.428 100.912 192.999 100.912C193.436 100.912 193.833 100.997 194.188 101.167C194.543 101.335 194.835 101.572 195.066 101.879C195.299 102.183 195.445 102.538 195.505 102.944H194.737C194.658 102.575 194.466 102.26 194.162 101.998C193.861 101.734 193.478 101.602 193.012 101.602C192.594 101.602 192.225 101.716 191.904 101.943C191.583 102.167 191.331 102.481 191.149 102.885C190.97 103.285 190.881 103.75 190.881 104.278C190.881 104.809 190.969 105.28 191.145 105.689C191.321 106.095 191.568 106.413 191.887 106.643C192.208 106.873 192.583 106.988 193.012 106.988C193.301 106.988 193.566 106.934 193.804 106.827C194.046 106.716 194.247 106.559 194.409 106.358C194.574 106.156 194.685 105.916 194.742 105.638H195.509C195.452 106.032 195.311 106.385 195.087 106.694C194.865 107.001 194.577 107.243 194.222 107.419C193.87 107.595 193.466 107.683 193.012 107.683ZM199.713 101.001V101.662H196.589V101.001H199.713ZM197.565 99.4331H198.328V105.838C198.328 106.111 198.375 106.325 198.468 106.481C198.562 106.635 198.684 106.744 198.835 106.809C198.985 106.872 199.146 106.903 199.316 106.903C199.416 106.903 199.501 106.898 199.572 106.886C199.643 106.872 199.706 106.858 199.759 106.844L199.921 107.53C199.848 107.558 199.757 107.584 199.649 107.606C199.541 107.632 199.407 107.645 199.248 107.645C198.97 107.645 198.701 107.584 198.443 107.461C198.187 107.339 197.977 107.157 197.812 106.916C197.647 106.675 197.565 106.375 197.565 106.017V99.4331ZM201.444 107.547V101.001H202.207V107.547H201.444ZM201.832 99.8762C201.675 99.8762 201.542 99.8237 201.431 99.7186C201.32 99.6106 201.265 99.4814 201.265 99.3308C201.265 99.1802 201.32 99.0524 201.431 98.9473C201.542 98.8393 201.675 98.7853 201.832 98.7853C201.988 98.7853 202.121 98.8393 202.232 98.9473C202.343 99.0524 202.398 99.1802 202.398 99.3308C202.398 99.4814 202.343 99.6106 202.232 99.7186C202.121 99.8237 201.988 99.8762 201.832 99.8762ZM209.279 101.001L206.889 107.547H206.079L203.688 101.001H204.511L206.454 106.545H206.514L208.457 101.001H209.279ZM213.175 107.683C212.565 107.683 212.036 107.541 211.59 107.257C211.144 106.97 210.799 106.574 210.555 106.068C210.313 105.559 210.192 104.974 210.192 104.312C210.192 103.653 210.313 103.068 210.555 102.557C210.799 102.042 211.136 101.64 211.565 101.351C211.996 101.058 212.495 100.912 213.06 100.912C213.415 100.912 213.758 100.977 214.087 101.108C214.417 101.236 214.712 101.433 214.974 101.7C215.238 101.964 215.447 102.298 215.6 102.702C215.753 103.102 215.83 103.577 215.83 104.125V104.5H210.717V103.831H215.055C215.055 103.41 214.969 103.032 214.799 102.697C214.631 102.359 214.397 102.092 214.096 101.896C213.797 101.7 213.452 101.602 213.06 101.602C212.645 101.602 212.28 101.713 211.965 101.934C211.65 102.156 211.403 102.449 211.224 102.812C211.047 103.176 210.958 103.574 210.955 104.005V104.406C210.955 104.926 211.045 105.38 211.224 105.77C211.405 106.156 211.663 106.456 211.995 106.669C212.327 106.882 212.721 106.988 213.175 106.988C213.485 106.988 213.756 106.94 213.989 106.844C214.225 106.747 214.422 106.618 214.582 106.456C214.743 106.291 214.866 106.111 214.948 105.915L215.668 106.149C215.569 106.425 215.405 106.679 215.178 106.912C214.954 107.145 214.672 107.332 214.334 107.474C213.999 107.613 213.613 107.683 213.175 107.683ZM221.034 107.547V98.8194H223.851C224.47 98.8194 224.987 98.9387 225.402 99.1774C225.82 99.4132 226.134 99.7342 226.344 100.14C226.557 100.547 226.664 101.004 226.664 101.513C226.664 102.021 226.558 102.48 226.348 102.889C226.138 103.295 225.826 103.618 225.411 103.856C224.996 104.092 224.48 104.21 223.864 104.21H221.648V103.494H223.843C224.3 103.494 224.679 103.409 224.98 103.238C225.281 103.065 225.506 102.829 225.654 102.531C225.804 102.233 225.88 101.893 225.88 101.513C225.88 101.132 225.804 100.792 225.654 100.494C225.506 100.196 225.28 99.9615 224.976 99.791C224.675 99.6206 224.293 99.5353 223.83 99.5353H221.831V107.547H221.034ZM230.85 107.683C230.285 107.683 229.785 107.54 229.35 107.253C228.919 106.966 228.58 106.569 228.336 106.064C228.092 105.555 227.97 104.969 227.97 104.304C227.97 103.633 228.092 103.044 228.336 102.535C228.58 102.024 228.919 101.626 229.35 101.342C229.785 101.055 230.285 100.912 230.85 100.912C231.416 100.912 231.914 101.055 232.346 101.342C232.778 101.629 233.116 102.027 233.36 102.535C233.607 103.044 233.731 103.633 233.731 104.304C233.731 104.969 233.609 105.555 233.365 106.064C233.12 106.569 232.781 106.966 232.346 107.253C231.914 107.54 231.416 107.683 230.85 107.683ZM230.85 106.988C231.305 106.988 231.69 106.866 232.005 106.622C232.321 106.378 232.559 106.052 232.721 105.646C232.886 105.24 232.968 104.792 232.968 104.304C232.968 103.815 232.886 103.366 232.721 102.957C232.559 102.548 232.321 102.22 232.005 101.973C231.69 101.726 231.305 101.602 230.85 101.602C230.399 101.602 230.014 101.726 229.696 101.973C229.38 102.22 229.14 102.548 228.975 102.957C228.813 103.366 228.732 103.815 228.732 104.304C228.732 104.792 228.813 105.24 228.975 105.646C229.14 106.052 229.38 106.378 229.696 106.622C230.011 106.866 230.396 106.988 230.85 106.988ZM239.794 102.437L239.099 102.633C239.031 102.437 238.935 102.26 238.81 102.101C238.685 101.942 238.521 101.815 238.319 101.721C238.121 101.628 237.873 101.581 237.578 101.581C237.135 101.581 236.771 101.686 236.487 101.896C236.203 102.106 236.061 102.378 236.061 102.71C236.061 102.991 236.158 103.22 236.351 103.396C236.547 103.569 236.848 103.707 237.254 103.809L238.243 104.052C238.791 104.186 239.202 104.398 239.474 104.687C239.75 104.977 239.888 105.341 239.888 105.778C239.888 106.148 239.785 106.476 239.581 106.763C239.376 107.05 239.091 107.275 238.724 107.44C238.361 107.602 237.939 107.683 237.459 107.683C236.819 107.683 236.293 107.54 235.878 107.253C235.463 106.963 235.197 106.545 235.081 106L235.81 105.821C235.903 106.21 236.087 106.504 236.359 106.703C236.635 106.902 236.997 107.001 237.446 107.001C237.949 107.001 238.351 106.889 238.652 106.665C238.953 106.437 239.104 106.153 239.104 105.812C239.104 105.548 239.016 105.327 238.839 105.148C238.663 104.966 238.396 104.832 238.038 104.747L236.969 104.491C236.4 104.355 235.98 104.139 235.707 103.844C235.435 103.548 235.298 103.182 235.298 102.744C235.298 102.383 235.396 102.067 235.592 101.794C235.788 101.518 236.058 101.302 236.402 101.146C236.746 100.99 237.138 100.912 237.578 100.912C238.177 100.912 238.656 101.048 239.014 101.321C239.375 101.591 239.635 101.963 239.794 102.437ZM245.946 102.437L245.252 102.633C245.183 102.437 245.087 102.26 244.962 102.101C244.837 101.942 244.674 101.815 244.472 101.721C244.273 101.628 244.026 101.581 243.73 101.581C243.287 101.581 242.924 101.686 242.639 101.896C242.355 102.106 242.213 102.378 242.213 102.71C242.213 102.991 242.31 103.22 242.503 103.396C242.699 103.569 243 103.707 243.406 103.809L244.395 104.052C244.943 104.186 245.354 104.398 245.627 104.687C245.902 104.977 246.04 105.341 246.04 105.778C246.04 106.148 245.938 106.476 245.733 106.763C245.529 107.05 245.243 107.275 244.877 107.44C244.513 107.602 244.091 107.683 243.611 107.683C242.972 107.683 242.445 107.54 242.03 107.253C241.615 106.963 241.35 106.545 241.233 106L241.962 105.821C242.056 106.21 242.239 106.504 242.512 106.703C242.787 106.902 243.149 107.001 243.598 107.001C244.101 107.001 244.503 106.889 244.804 106.665C245.105 106.437 245.256 106.153 245.256 105.812C245.256 105.548 245.168 105.327 244.992 105.148C244.816 104.966 244.549 104.832 244.191 104.747L243.121 104.491C242.553 104.355 242.132 104.139 241.86 103.844C241.587 103.548 241.451 103.182 241.451 102.744C241.451 102.383 241.549 102.067 241.745 101.794C241.941 101.518 242.21 101.302 242.554 101.146C242.898 100.99 243.29 100.912 243.73 100.912C244.33 100.912 244.808 101.048 245.166 101.321C245.527 101.591 245.787 101.963 245.946 102.437ZM247.709 107.547V101.001H248.472V107.547H247.709ZM248.097 99.8762C247.941 99.8762 247.807 99.8237 247.697 99.7186C247.586 99.6106 247.53 99.4814 247.53 99.3308C247.53 99.1802 247.586 99.0524 247.697 98.9473C247.807 98.8393 247.941 98.7853 248.097 98.7853C248.253 98.7853 248.387 98.8393 248.498 98.9473C248.609 99.0524 248.664 99.1802 248.664 99.3308C248.664 99.4814 248.609 99.6106 248.498 99.7186C248.387 99.8237 248.253 99.8762 248.097 99.8762ZM250.636 107.547V98.8194H251.399V102.25H251.467C251.552 102.054 251.674 101.852 251.833 101.645C251.995 101.437 252.207 101.264 252.468 101.125C252.732 100.983 253.065 100.912 253.465 100.912C254.002 100.912 254.474 101.054 254.88 101.338C255.286 101.619 255.603 102.014 255.83 102.523C256.058 103.028 256.171 103.618 256.171 104.291C256.171 104.967 256.058 105.559 255.83 106.068C255.606 106.577 255.291 106.973 254.884 107.257C254.481 107.541 254.012 107.683 253.478 107.683C253.081 107.683 252.748 107.612 252.481 107.47C252.217 107.328 252.004 107.153 251.842 106.946C251.68 106.736 251.555 106.531 251.467 106.332H251.373V107.547H250.636ZM251.386 104.278C251.386 104.807 251.464 105.275 251.62 105.684C251.779 106.091 252.007 106.41 252.302 106.643C252.6 106.873 252.961 106.988 253.384 106.988C253.819 106.988 254.187 106.869 254.488 106.63C254.789 106.389 255.018 106.064 255.174 105.655C255.33 105.246 255.409 104.787 255.409 104.278C255.409 103.775 255.33 103.322 255.174 102.919C255.021 102.515 254.794 102.196 254.492 101.96C254.191 101.721 253.822 101.602 253.384 101.602C252.958 101.602 252.596 101.717 252.298 101.947C252.002 102.175 251.777 102.49 251.62 102.893C251.464 103.294 251.386 103.755 251.386 104.278ZM257.846 107.547V101.001H258.609V107.547H257.846ZM258.234 99.8762C258.078 99.8762 257.944 99.8237 257.833 99.7186C257.723 99.6106 257.667 99.4814 257.667 99.3308C257.667 99.1802 257.723 99.0524 257.833 98.9473C257.944 98.8393 258.078 98.7853 258.234 98.7853C258.39 98.7853 258.524 98.8393 258.634 98.9473C258.745 99.0524 258.801 99.1802 258.801 99.3308C258.801 99.4814 258.745 99.6106 258.634 99.7186C258.524 99.8237 258.39 99.8762 258.234 99.8762ZM261.373 98.8194V107.547H260.615V98.8194H261.373ZM263.389 107.547V101.001H264.152V107.547H263.389ZM263.777 99.8762C263.621 99.8762 263.487 99.8237 263.376 99.7186C263.266 99.6106 263.21 99.4814 263.21 99.3308C263.21 99.1802 263.266 99.0524 263.376 98.9473C263.487 98.8393 263.621 98.7853 263.777 98.7853C263.933 98.7853 264.067 98.8393 264.177 98.9473C264.288 99.0524 264.344 99.1802 264.344 99.3308C264.344 99.4814 264.288 99.6106 264.177 99.7186C264.067 99.8237 263.933 99.8762 263.777 99.8762ZM268.736 101.001V101.662H265.612V101.001H268.736ZM266.588 99.4331H267.351V105.838C267.351 106.111 267.398 106.325 267.492 106.481C267.585 106.635 267.708 106.744 267.858 106.809C268.009 106.872 268.169 106.903 268.34 106.903C268.439 106.903 268.524 106.898 268.595 106.886C268.666 106.872 268.729 106.858 268.783 106.844L268.945 107.53C268.871 107.558 268.78 107.584 268.672 107.606C268.564 107.632 268.431 107.645 268.272 107.645C267.993 107.645 267.725 107.584 267.466 107.461C267.21 107.339 267 107.157 266.835 106.916C266.671 106.675 266.588 106.375 266.588 106.017V99.4331ZM270.987 110.001C270.837 110.001 270.696 109.987 270.565 109.959C270.435 109.93 270.331 109.899 270.254 109.865L270.459 109.196C270.717 109.275 270.947 109.304 271.149 109.281C271.351 109.261 271.53 109.17 271.686 109.008C271.842 108.849 271.981 108.605 272.104 108.275L272.342 107.611L269.935 101.001H270.757L272.7 106.545H272.76L274.703 101.001H275.525L272.756 108.582C272.639 108.898 272.496 109.16 272.325 109.371C272.155 109.584 271.957 109.741 271.733 109.844C271.511 109.949 271.263 110.001 270.987 110.001Z" fill="#4F4F4F"/>
<rect x="90.5227" y="86.1983" width="46.1731" height="56.4338" rx="10.2607" fill="#3921F5"/>
<g clip-path="url(#clip0_1124_1653)">
<path d="M120.449 122.967H106.768V121.257C106.768 120.123 107.218 119.035 108.02 118.234C108.822 117.432 109.909 116.981 111.043 116.981H116.173C117.307 116.981 118.395 117.432 119.197 118.234C119.998 119.035 120.449 120.123 120.449 121.257V122.967ZM113.608 115.271C112.935 115.271 112.267 115.139 111.645 114.881C111.023 114.623 110.457 114.245 109.981 113.769C109.504 113.292 109.126 112.727 108.868 112.104C108.611 111.482 108.478 110.815 108.478 110.141C108.478 109.467 108.611 108.8 108.868 108.178C109.126 107.555 109.504 106.99 109.981 106.513C110.457 106.037 111.023 105.659 111.645 105.401C112.267 105.143 112.935 105.011 113.608 105.011C114.969 105.011 116.274 105.551 117.236 106.513C118.198 107.475 118.739 108.78 118.739 110.141C118.739 111.502 118.198 112.807 117.236 113.769C116.274 114.731 114.969 115.271 113.608 115.271Z" fill="white"/>
</g>
<defs>
<filter id="filter0_d_1124_1653" x="-0.000114441" y="2.86102e-06" width="366.594" height="352.058" filterUnits="userSpaceOnUse" color-interpolation-filters="sRGB">
<feFlood flood-opacity="0" result="BackgroundImageFix"/>
<feColorMatrix in="SourceAlpha" type="matrix" values="0 0 0 0 0 0 0 0 0 0 0 0 0 0 0 0 0 0 127 0" result="hardAlpha"/>
<feOffset dy="4.32476"/>
<feGaussianBlur stdDeviation="32.4357"/>
<feComposite in2="hardAlpha" operator="out"/>
<feColorMatrix type="matrix" values="0 0 0 0 0 0 0 0 0 0 0 0 0 0 0 0 0 0 0.08 0"/>
<feBlend mode="normal" in2="BackgroundImageFix" result="effect1_dropShadow_1124_1653"/>
<feBlend mode="normal" in="SourceGraphic" in2="effect1_dropShadow_1124_1653" result="shape"/>
</filter>
<linearGradient id="paint0_linear_1124_1653" x1="64.8713" y1="68.1448" x2="297.475" y2="273.589" gradientUnits="userSpaceOnUse">
<stop stop-color="white" stop-opacity="0.15"/>
<stop offset="1" stop-color="white" stop-opacity="0"/>
</linearGradient>
<linearGradient id="paint1_linear_1124_1653" x1="180.303" y1="148.19" x2="179.876" y2="259.775" gradientUnits="userSpaceOnUse">
<stop stop-color="#4BA2A4"/>
<stop offset="1" stop-color="white" stop-opacity="0"/>
</linearGradient>
<linearGradient id="paint2_linear_1124_1653" x1="255.349" y1="164.755" x2="255.349" y2="245.985" gradientUnits="userSpaceOnUse">
<stop stop-color="white"/>
<stop offset="1" stop-color="white" stop-opacity="0"/>
</linearGradient>
<clipPath id="clip0_1124_1653">
<rect width="20.5214" height="20.5214" fill="white" transform="translate(103.348 104.155)"/>
</clipPath>
</defs>
</svg>
